<svg width="781" height="38" viewBox="0 0 781 38" fill="none" xmlns="http://www.w3.org/2000/svg">
<path d="M1 17C15.6667 21.6667 51.4 28.2001 77 17C91.6667 11.0001 127.4 2.60008 153 17C165 23.0001 200.6 31.4001 247 17" stroke="#FFFEFE" stroke-width="3"/>
<path d="M534 17.951C548.667 22.6176 584.4 29.151 610 17.951C624.667 11.951 660.4 3.551 686 17.951C698 23.951 733.6 32.351 780 17.951" stroke="white" stroke-width="3"/>
<path d="M253.966 19.2273C252.943 19.2273 252.063 18.9858 251.324 18.5028C250.585 18.0199 250.017 17.3546 249.619 16.5071C249.222 15.6596 249.023 14.6913 249.023 13.6023C249.023 12.4943 249.226 11.5166 249.634 10.669C250.045 9.81676 250.618 9.15152 251.352 8.6733C252.091 8.19034 252.953 7.94886 253.938 7.94886C254.705 7.94886 255.396 8.09091 256.011 8.375C256.627 8.65909 257.131 9.05682 257.524 9.56818C257.917 10.0795 258.161 10.6761 258.256 11.358H256.58C256.452 10.8608 256.168 10.4205 255.727 10.0369C255.292 9.64867 254.705 9.45455 253.966 9.45455C253.313 9.45455 252.74 9.625 252.247 9.96591C251.759 10.3021 251.378 10.7779 251.104 11.3935C250.834 12.0043 250.699 12.7216 250.699 13.5455C250.699 14.3883 250.831 15.1222 251.097 15.7472C251.366 16.3722 251.745 16.8575 252.233 17.2031C252.725 17.5488 253.303 17.7216 253.966 17.7216C254.402 17.7216 254.797 17.6458 255.152 17.4943C255.507 17.3428 255.808 17.125 256.054 16.8409C256.3 16.5568 256.475 16.2159 256.58 15.8182H258.256C258.161 16.4621 257.927 17.0421 257.553 17.5582C257.183 18.0696 256.693 18.4768 256.082 18.7798C255.476 19.0781 254.771 19.2273 253.966 19.2273ZM265.138 19.2273C264.153 19.2273 263.289 18.9929 262.545 18.5241C261.807 18.0554 261.229 17.3996 260.812 16.5568C260.401 15.714 260.195 14.7292 260.195 13.6023C260.195 12.4659 260.401 11.474 260.812 10.6264C261.229 9.77888 261.807 9.12074 262.545 8.65199C263.289 8.18324 264.153 7.94886 265.138 7.94886C266.123 7.94886 266.984 8.18324 267.723 8.65199C268.466 9.12074 269.044 9.77888 269.456 10.6264C269.873 11.474 270.081 12.4659 270.081 13.6023C270.081 14.7292 269.873 15.714 269.456 16.5568C269.044 17.3996 268.466 18.0554 267.723 18.5241C266.984 18.9929 266.123 19.2273 265.138 19.2273ZM265.138 17.7216C265.886 17.7216 266.501 17.5298 266.984 17.1463C267.467 16.7628 267.825 16.2585 268.057 15.6335C268.289 15.0085 268.405 14.3314 268.405 13.6023C268.405 12.8731 268.289 12.1937 268.057 11.5639C267.825 10.9342 267.467 10.4252 266.984 10.0369C266.501 9.64867 265.886 9.45455 265.138 9.45455C264.39 9.45455 263.774 9.64867 263.291 10.0369C262.808 10.4252 262.451 10.9342 262.219 11.5639C261.987 12.1937 261.871 12.8731 261.871 13.6023C261.871 14.3314 261.987 15.0085 262.219 15.6335C262.451 16.2585 262.808 16.7628 263.291 17.1463C263.774 17.5298 264.39 17.7216 265.138 17.7216ZM274.316 12.4375V19H272.64V8.09091H274.259V9.79545H274.401C274.657 9.24148 275.045 8.7964 275.566 8.46023C276.087 8.11932 276.759 7.94886 277.583 7.94886C278.321 7.94886 278.968 8.10038 279.522 8.40341C280.076 8.7017 280.507 9.15625 280.814 9.76705C281.122 10.3731 281.276 11.1402 281.276 12.0682V19H279.6V12.1818C279.6 11.3248 279.377 10.6572 278.932 10.179C278.487 9.69602 277.876 9.45455 277.1 9.45455C276.565 9.45455 276.087 9.57055 275.665 9.80256C275.248 10.0346 274.919 10.3731 274.678 10.8182C274.436 11.2633 274.316 11.803 274.316 12.4375ZM289.083 8.09091V9.51136H283.43V8.09091H289.083ZM285.077 5.47727H286.754V15.875C286.754 16.3485 286.822 16.7036 286.96 16.9403C287.102 17.1723 287.281 17.3286 287.499 17.4091C287.722 17.4848 287.956 17.5227 288.202 17.5227C288.387 17.5227 288.539 17.5133 288.657 17.4943C288.775 17.4706 288.87 17.4517 288.941 17.4375L289.282 18.9432C289.168 18.9858 289.01 19.0284 288.806 19.071C288.603 19.1184 288.344 19.142 288.032 19.142C287.558 19.142 287.094 19.0402 286.64 18.8366C286.19 18.633 285.816 18.3229 285.518 17.9062C285.224 17.4896 285.077 16.964 285.077 16.3295V5.47727ZM291.604 19V8.09091H293.224V9.73864H293.337C293.536 9.19886 293.896 8.76089 294.417 8.42472C294.938 8.08854 295.525 7.92045 296.178 7.92045C296.301 7.92045 296.455 7.92282 296.64 7.92756C296.825 7.93229 296.964 7.93939 297.059 7.94886V9.65341C297.002 9.6392 296.872 9.6179 296.668 9.58949C296.469 9.55634 296.259 9.53977 296.036 9.53977C295.506 9.53977 295.032 9.65104 294.616 9.87358C294.204 10.0914 293.877 10.3944 293.636 10.7827C293.399 11.1662 293.281 11.6042 293.281 12.0966V19H291.604ZM305.921 14.5398V8.09091H307.597V19H305.921V17.1534H305.807C305.551 17.7074 305.154 18.1785 304.614 18.5668C304.074 18.9503 303.392 19.142 302.569 19.142C301.887 19.142 301.281 18.9929 300.75 18.6946C300.22 18.3916 299.803 17.937 299.5 17.331C299.197 16.7202 299.046 15.9508 299.046 15.0227V8.09091H300.722V14.9091C300.722 15.7045 300.944 16.339 301.39 16.8125C301.839 17.286 302.412 17.5227 303.108 17.5227C303.525 17.5227 303.949 17.4162 304.38 17.2031C304.815 16.9901 305.18 16.6634 305.473 16.223C305.772 15.7827 305.921 15.2216 305.921 14.5398ZM310.667 19V8.09091H312.343V19H310.667ZM311.519 6.27273C311.192 6.27273 310.911 6.16146 310.674 5.93892C310.442 5.71638 310.326 5.44886 310.326 5.13636C310.326 4.82386 310.442 4.55634 310.674 4.33381C310.911 4.11127 311.192 4 311.519 4C311.846 4 312.125 4.11127 312.357 4.33381C312.594 4.55634 312.712 4.82386 312.712 5.13636C312.712 5.44886 312.594 5.71638 312.357 5.93892C312.125 6.16146 311.846 6.27273 311.519 6.27273ZM320.157 8.09091V9.51136H314.504V8.09091H320.157ZM316.152 5.47727H317.828V15.875C317.828 16.3485 317.896 16.7036 318.034 16.9403C318.176 17.1723 318.356 17.3286 318.574 17.4091C318.796 17.4848 319.03 17.5227 319.277 17.5227C319.461 17.5227 319.613 17.5133 319.731 17.4943C319.85 17.4706 319.944 17.4517 320.015 17.4375L320.356 18.9432C320.243 18.9858 320.084 19.0284 319.88 19.071C319.677 19.1184 319.419 19.142 319.106 19.142C318.633 19.142 318.169 19.0402 317.714 18.8366C317.264 18.633 316.89 18.3229 316.592 17.9062C316.298 17.4896 316.152 16.964 316.152 16.3295V5.47727ZM328.304 23.0909V8.09091H329.923V9.82386H330.122C330.245 9.63447 330.415 9.39299 330.633 9.09943C330.856 8.80114 331.173 8.53598 331.585 8.30398C332.002 8.06723 332.565 7.94886 333.275 7.94886C334.194 7.94886 335.003 8.1785 335.704 8.63778C336.405 9.09706 336.952 9.74811 337.345 10.5909C337.738 11.4337 337.934 12.428 337.934 13.5739C337.934 14.7292 337.738 15.7306 337.345 16.5781C336.952 17.4209 336.407 18.0743 335.711 18.5384C335.015 18.9976 334.213 19.2273 333.304 19.2273C332.603 19.2273 332.042 19.1113 331.62 18.8793C331.199 18.6425 330.875 18.375 330.647 18.0767C330.42 17.7737 330.245 17.5227 330.122 17.3239H329.98V23.0909H328.304ZM329.951 13.5455C329.951 14.3693 330.072 15.0961 330.314 15.7259C330.555 16.3509 330.908 16.8409 331.372 17.196C331.836 17.5464 332.404 17.7216 333.076 17.7216C333.777 17.7216 334.362 17.5369 334.831 17.1676C335.304 16.7936 335.659 16.2917 335.896 15.6619C336.137 15.0275 336.258 14.322 336.258 13.5455C336.258 12.7784 336.14 12.0871 335.903 11.4716C335.671 10.8513 335.318 10.3613 334.845 10.0014C334.376 9.63684 333.787 9.45455 333.076 9.45455C332.395 9.45455 331.822 9.62737 331.358 9.97301C330.894 10.3139 330.543 10.7921 330.306 11.4077C330.07 12.0185 329.951 12.7311 329.951 13.5455ZM343.701 19.2557C343.01 19.2557 342.383 19.1255 341.819 18.8651C341.256 18.5999 340.808 18.2188 340.477 17.7216C340.145 17.2197 339.98 16.6136 339.98 15.9034C339.98 15.2784 340.103 14.7718 340.349 14.3835C340.595 13.9905 340.924 13.6828 341.336 13.4602C341.748 13.2377 342.203 13.072 342.7 12.9631C343.202 12.8494 343.706 12.7595 344.213 12.6932C344.876 12.608 345.413 12.544 345.825 12.5014C346.242 12.4541 346.545 12.3759 346.734 12.267C346.928 12.1581 347.025 11.9687 347.025 11.6989V11.642C347.025 10.9413 346.833 10.3968 346.45 10.0085C346.071 9.62027 345.496 9.42614 344.724 9.42614C343.924 9.42614 343.297 9.60133 342.842 9.9517C342.387 10.3021 342.068 10.6761 341.883 11.0739L340.292 10.5057C340.576 9.8428 340.955 9.3267 341.429 8.95739C341.907 8.58333 342.428 8.32292 342.991 8.17614C343.559 8.02462 344.118 7.94886 344.667 7.94886C345.018 7.94886 345.42 7.99148 345.875 8.0767C346.334 8.1572 346.777 8.32528 347.203 8.58097C347.634 8.83665 347.991 9.22254 348.275 9.73864C348.559 10.2547 348.701 10.946 348.701 11.8125V19H347.025V17.5227H346.94C346.826 17.7595 346.637 18.0128 346.372 18.2827C346.107 18.5526 345.754 18.7822 345.314 18.9716C344.873 19.161 344.336 19.2557 343.701 19.2557ZM343.957 17.75C344.62 17.75 345.179 17.6198 345.633 17.3594C346.092 17.099 346.438 16.7628 346.67 16.3509C346.907 15.9389 347.025 15.5057 347.025 15.0511V13.517C346.954 13.6023 346.798 13.6804 346.556 13.7514C346.32 13.8177 346.045 13.8769 345.733 13.929C345.425 13.9763 345.124 14.0189 344.831 14.0568C344.542 14.09 344.307 14.1184 344.127 14.142C343.692 14.1989 343.285 14.2912 342.906 14.419C342.532 14.5421 342.229 14.7292 341.997 14.9801C341.77 15.2263 341.656 15.5625 341.656 15.9886C341.656 16.571 341.871 17.0114 342.302 17.3097C342.738 17.6032 343.289 17.75 343.957 17.75ZM351.761 19V8.09091H353.38V9.73864H353.494C353.692 9.19886 354.052 8.76089 354.573 8.42472C355.094 8.08854 355.681 7.92045 356.335 7.92045C356.458 7.92045 356.612 7.92282 356.796 7.92756C356.981 7.93229 357.121 7.93939 357.215 7.94886V9.65341C357.158 9.6392 357.028 9.6179 356.825 9.58949C356.626 9.55634 356.415 9.53977 356.192 9.53977C355.662 9.53977 355.189 9.65104 354.772 9.87358C354.36 10.0914 354.033 10.3944 353.792 10.7827C353.555 11.1662 353.437 11.6042 353.437 12.0966V19H351.761ZM369.259 19.2273C368.274 19.2273 367.41 18.9929 366.667 18.5241C365.928 18.0554 365.35 17.3996 364.934 16.5568C364.522 15.714 364.316 14.7292 364.316 13.6023C364.316 12.4659 364.522 11.474 364.934 10.6264C365.35 9.77888 365.928 9.12074 366.667 8.65199C367.41 8.18324 368.274 7.94886 369.259 7.94886C370.244 7.94886 371.105 8.18324 371.844 8.65199C372.587 9.12074 373.165 9.77888 373.577 10.6264C373.994 11.474 374.202 12.4659 374.202 13.6023C374.202 14.7292 373.994 15.714 373.577 16.5568C373.165 17.3996 372.587 18.0554 371.844 18.5241C371.105 18.9929 370.244 19.2273 369.259 19.2273ZM369.259 17.7216C370.007 17.7216 370.623 17.5298 371.105 17.1463C371.588 16.7628 371.946 16.2585 372.178 15.6335C372.41 15.0085 372.526 14.3314 372.526 13.6023C372.526 12.8731 372.41 12.1937 372.178 11.5639C371.946 10.9342 371.588 10.4252 371.105 10.0369C370.623 9.64867 370.007 9.45455 369.259 9.45455C368.511 9.45455 367.895 9.64867 367.412 10.0369C366.929 10.4252 366.572 10.9342 366.34 11.5639C366.108 12.1937 365.992 12.8731 365.992 13.6023C365.992 14.3314 366.108 15.0085 366.34 15.6335C366.572 16.2585 366.929 16.7628 367.412 17.1463C367.895 17.5298 368.511 17.7216 369.259 17.7216ZM383.636 14.5398V8.09091H385.312V19H383.636V17.1534H383.522C383.266 17.7074 382.869 18.1785 382.329 18.5668C381.789 18.9503 381.107 19.142 380.283 19.142C379.602 19.142 378.996 18.9929 378.465 18.6946C377.935 18.3916 377.518 17.937 377.215 17.331C376.912 16.7202 376.761 15.9508 376.761 15.0227V8.09091H378.437V14.9091C378.437 15.7045 378.659 16.339 379.104 16.8125C379.554 17.286 380.127 17.5227 380.823 17.5227C381.24 17.5227 381.664 17.4162 382.094 17.2031C382.53 16.9901 382.895 16.6634 383.188 16.223C383.487 15.7827 383.636 15.2216 383.636 14.5398ZM391.592 19.2557C390.901 19.2557 390.273 19.1255 389.71 18.8651C389.146 18.5999 388.699 18.2188 388.368 17.7216C388.036 17.2197 387.87 16.6136 387.87 15.9034C387.87 15.2784 387.993 14.7718 388.24 14.3835C388.486 13.9905 388.815 13.6828 389.227 13.4602C389.639 13.2377 390.093 13.072 390.591 12.9631C391.092 12.8494 391.597 12.7595 392.103 12.6932C392.766 12.608 393.304 12.544 393.716 12.5014C394.132 12.4541 394.435 12.3759 394.625 12.267C394.819 12.1581 394.916 11.9687 394.916 11.6989V11.642C394.916 10.9413 394.724 10.3968 394.341 10.0085C393.962 9.62027 393.386 9.42614 392.615 9.42614C391.815 9.42614 391.187 9.60133 390.733 9.9517C390.278 10.3021 389.958 10.6761 389.774 11.0739L388.183 10.5057C388.467 9.8428 388.846 9.3267 389.319 8.95739C389.797 8.58333 390.318 8.32292 390.882 8.17614C391.45 8.02462 392.009 7.94886 392.558 7.94886C392.908 7.94886 393.311 7.99148 393.765 8.0767C394.225 8.1572 394.667 8.32528 395.093 8.58097C395.524 8.83665 395.882 9.22254 396.166 9.73864C396.45 10.2547 396.592 10.946 396.592 11.8125V19H394.916V17.5227H394.831C394.717 17.7595 394.528 18.0128 394.262 18.2827C393.997 18.5526 393.645 18.7822 393.204 18.9716C392.764 19.161 392.226 19.2557 391.592 19.2557ZM391.848 17.75C392.511 17.75 393.069 17.6198 393.524 17.3594C393.983 17.099 394.329 16.7628 394.561 16.3509C394.797 15.9389 394.916 15.5057 394.916 15.0511V13.517C394.845 13.6023 394.689 13.6804 394.447 13.7514C394.21 13.8177 393.936 13.8769 393.623 13.929C393.315 13.9763 393.015 14.0189 392.721 14.0568C392.432 14.09 392.198 14.1184 392.018 14.142C391.583 14.1989 391.175 14.2912 390.797 14.419C390.422 14.5421 390.119 14.7292 389.887 14.9801C389.66 15.2263 389.547 15.5625 389.547 15.9886C389.547 16.571 389.762 17.0114 390.193 17.3097C390.628 17.6032 391.18 17.75 391.848 17.75ZM404.396 8.09091V9.51136H398.742V8.09091H404.396ZM400.39 5.47727H402.066V15.875C402.066 16.3485 402.135 16.7036 402.272 16.9403C402.414 17.1723 402.594 17.3286 402.812 17.4091C403.034 17.4848 403.269 17.5227 403.515 17.5227C403.7 17.5227 403.851 17.5133 403.969 17.4943C404.088 17.4706 404.183 17.4517 404.254 17.4375L404.594 18.9432C404.481 18.9858 404.322 19.0284 404.119 19.071C403.915 19.1184 403.657 19.142 403.344 19.142C402.871 19.142 402.407 19.0402 401.952 18.8366C401.503 18.633 401.129 18.3229 400.83 17.9062C400.537 17.4896 400.39 16.964 400.39 16.3295V5.47727ZM411.661 8.09091V9.51136H406.008V8.09091H411.661ZM407.656 5.47727H409.332V15.875C409.332 16.3485 409.4 16.7036 409.538 16.9403C409.68 17.1723 409.86 17.3286 410.077 17.4091C410.3 17.4848 410.534 17.5227 410.781 17.5227C410.965 17.5227 411.117 17.5133 411.235 17.4943C411.353 17.4706 411.448 17.4517 411.519 17.4375L411.86 18.9432C411.746 18.9858 411.588 19.0284 411.384 19.071C411.181 19.1184 410.923 19.142 410.61 19.142C410.137 19.142 409.673 19.0402 409.218 18.8366C408.768 18.633 408.394 18.3229 408.096 17.9062C407.802 17.4896 407.656 16.964 407.656 16.3295V5.47727ZM417.393 19.2557C416.701 19.2557 416.074 19.1255 415.511 18.8651C414.947 18.5999 414.5 18.2188 414.168 17.7216C413.837 17.2197 413.671 16.6136 413.671 15.9034C413.671 15.2784 413.794 14.7718 414.04 14.3835C414.287 13.9905 414.616 13.6828 415.028 13.4602C415.44 13.2377 415.894 13.072 416.391 12.9631C416.893 12.8494 417.397 12.7595 417.904 12.6932C418.567 12.608 419.104 12.544 419.516 12.5014C419.933 12.4541 420.236 12.3759 420.425 12.267C420.62 12.1581 420.717 11.9687 420.717 11.6989V11.642C420.717 10.9413 420.525 10.3968 420.141 10.0085C419.763 9.62027 419.187 9.42614 418.415 9.42614C417.615 9.42614 416.988 9.60133 416.533 9.9517C416.079 10.3021 415.759 10.6761 415.575 11.0739L413.984 10.5057C414.268 9.8428 414.647 9.3267 415.12 8.95739C415.598 8.58333 416.119 8.32292 416.683 8.17614C417.251 8.02462 417.809 7.94886 418.359 7.94886C418.709 7.94886 419.112 7.99148 419.566 8.0767C420.025 8.1572 420.468 8.32528 420.894 8.58097C421.325 8.83665 421.683 9.22254 421.967 9.73864C422.251 10.2547 422.393 10.946 422.393 11.8125V19H420.717V17.5227H420.631C420.518 17.7595 420.328 18.0128 420.063 18.2827C419.798 18.5526 419.445 18.7822 419.005 18.9716C418.565 19.161 418.027 19.2557 417.393 19.2557ZM417.648 17.75C418.311 17.75 418.87 17.6198 419.325 17.3594C419.784 17.099 420.129 16.7628 420.362 16.3509C420.598 15.9389 420.717 15.5057 420.717 15.0511V13.517C420.646 13.6023 420.489 13.6804 420.248 13.7514C420.011 13.8177 419.737 13.8769 419.424 13.929C419.116 13.9763 418.816 14.0189 418.522 14.0568C418.233 14.09 417.999 14.1184 417.819 14.142C417.383 14.1989 416.976 14.2912 416.597 14.419C416.223 14.5421 415.92 14.7292 415.688 14.9801C415.461 15.2263 415.347 15.5625 415.347 15.9886C415.347 16.571 415.563 17.0114 415.994 17.3097C416.429 17.6032 416.981 17.75 417.648 17.75ZM425.452 19V8.09091H427.071V9.73864H427.185C427.384 9.19886 427.744 8.76089 428.265 8.42472C428.785 8.08854 429.373 7.92045 430.026 7.92045C430.149 7.92045 430.303 7.92282 430.488 7.92756C430.672 7.93229 430.812 7.93939 430.907 7.94886V9.65341C430.85 9.6392 430.72 9.6179 430.516 9.58949C430.317 9.55634 430.106 9.53977 429.884 9.53977C429.354 9.53977 428.88 9.65104 428.463 9.87358C428.051 10.0914 427.725 10.3944 427.483 10.7827C427.247 11.1662 427.128 11.6042 427.128 12.0966V19H425.452ZM436.104 19.2557C435.412 19.2557 434.785 19.1255 434.222 18.8651C433.658 18.5999 433.211 18.2188 432.879 17.7216C432.548 17.2197 432.382 16.6136 432.382 15.9034C432.382 15.2784 432.505 14.7718 432.751 14.3835C432.998 13.9905 433.327 13.6828 433.739 13.4602C434.151 13.2377 434.605 13.072 435.102 12.9631C435.604 12.8494 436.108 12.7595 436.615 12.6932C437.278 12.608 437.815 12.544 438.227 12.5014C438.644 12.4541 438.947 12.3759 439.136 12.267C439.33 12.1581 439.428 11.9687 439.428 11.6989V11.642C439.428 10.9413 439.236 10.3968 438.852 10.0085C438.473 9.62027 437.898 9.42614 437.126 9.42614C436.326 9.42614 435.699 9.60133 435.244 9.9517C434.79 10.3021 434.47 10.6761 434.286 11.0739L432.695 10.5057C432.979 9.8428 433.357 9.3267 433.831 8.95739C434.309 8.58333 434.83 8.32292 435.393 8.17614C435.962 8.02462 436.52 7.94886 437.07 7.94886C437.42 7.94886 437.822 7.99148 438.277 8.0767C438.736 8.1572 439.179 8.32528 439.605 8.58097C440.036 8.83665 440.393 9.22254 440.678 9.73864C440.962 10.2547 441.104 10.946 441.104 11.8125V19H439.428V17.5227H439.342C439.229 17.7595 439.039 18.0128 438.774 18.2827C438.509 18.5526 438.156 18.7822 437.716 18.9716C437.276 19.161 436.738 19.2557 436.104 19.2557ZM436.359 17.75C437.022 17.75 437.581 17.6198 438.036 17.3594C438.495 17.099 438.84 16.7628 439.072 16.3509C439.309 15.9389 439.428 15.5057 439.428 15.0511V13.517C439.357 13.6023 439.2 13.6804 438.959 13.7514C438.722 13.8177 438.447 13.8769 438.135 13.929C437.827 13.9763 437.527 14.0189 437.233 14.0568C436.944 14.09 436.71 14.1184 436.53 14.142C436.094 14.1989 435.687 14.2912 435.308 14.419C434.934 14.5421 434.631 14.7292 434.399 14.9801C434.172 15.2263 434.058 15.5625 434.058 15.9886C434.058 16.571 434.274 17.0114 434.705 17.3097C435.14 17.6032 435.692 17.75 436.359 17.75ZM450.612 19H448.765L454.106 4.45455H455.924L461.265 19H459.419L455.072 6.75568H454.958L450.612 19ZM451.294 13.3182H458.737V14.8807H451.294V13.3182ZM463.531 19V4.45455H465.207V9.82386H465.349C465.472 9.63447 465.643 9.39299 465.86 9.09943C466.083 8.80114 466.4 8.53598 466.812 8.30398C467.229 8.06723 467.792 7.94886 468.502 7.94886C469.421 7.94886 470.231 8.1785 470.931 8.63778C471.632 9.09706 472.179 9.74811 472.572 10.5909C472.965 11.4337 473.162 12.428 473.162 13.5739C473.162 14.7292 472.965 15.7306 472.572 16.5781C472.179 17.4209 471.635 18.0743 470.939 18.5384C470.243 18.9976 469.44 19.2273 468.531 19.2273C467.83 19.2273 467.269 19.1113 466.848 18.8793C466.426 18.6425 466.102 18.375 465.875 18.0767C465.647 17.7737 465.472 17.5227 465.349 17.3239H465.15V19H463.531ZM465.179 13.5455C465.179 14.3693 465.299 15.0961 465.541 15.7259C465.782 16.3509 466.135 16.8409 466.599 17.196C467.063 17.5464 467.631 17.7216 468.304 17.7216C469.004 17.7216 469.589 17.5369 470.058 17.1676C470.531 16.7936 470.886 16.2917 471.123 15.6619C471.365 15.0275 471.485 14.322 471.485 13.5455C471.485 12.7784 471.367 12.0871 471.13 11.4716C470.898 10.8513 470.546 10.3613 470.072 10.0014C469.603 9.63684 469.014 9.45455 468.304 9.45455C467.622 9.45455 467.049 9.62737 466.585 9.97301C466.121 10.3139 465.77 10.7921 465.534 11.4077C465.297 12.0185 465.179 12.7311 465.179 13.5455ZM475.725 19V8.09091H477.345V9.73864H477.458C477.657 9.19886 478.017 8.76089 478.538 8.42472C479.059 8.08854 479.646 7.92045 480.299 7.92045C480.422 7.92045 480.576 7.92282 480.761 7.92756C480.946 7.93229 481.085 7.93939 481.18 7.94886V9.65341C481.123 9.6392 480.993 9.6179 480.789 9.58949C480.591 9.55634 480.38 9.53977 480.157 9.53977C479.627 9.53977 479.154 9.65104 478.737 9.87358C478.325 10.0914 477.998 10.3944 477.757 10.7827C477.52 11.1662 477.402 11.6042 477.402 12.0966V19H475.725ZM486.377 19.2557C485.686 19.2557 485.058 19.1255 484.495 18.8651C483.932 18.5999 483.484 18.2188 483.153 17.7216C482.821 17.2197 482.656 16.6136 482.656 15.9034C482.656 15.2784 482.779 14.7718 483.025 14.3835C483.271 13.9905 483.6 13.6828 484.012 13.4602C484.424 13.2377 484.879 13.072 485.376 12.9631C485.878 12.8494 486.382 12.7595 486.888 12.6932C487.551 12.608 488.089 12.544 488.501 12.5014C488.917 12.4541 489.22 12.3759 489.41 12.267C489.604 12.1581 489.701 11.9687 489.701 11.6989V11.642C489.701 10.9413 489.509 10.3968 489.126 10.0085C488.747 9.62027 488.172 9.42614 487.4 9.42614C486.6 9.42614 485.972 9.60133 485.518 9.9517C485.063 10.3021 484.744 10.6761 484.559 11.0739L482.968 10.5057C483.252 9.8428 483.631 9.3267 484.104 8.95739C484.583 8.58333 485.103 8.32292 485.667 8.17614C486.235 8.02462 486.794 7.94886 487.343 7.94886C487.693 7.94886 488.096 7.99148 488.55 8.0767C489.01 8.1572 489.452 8.32528 489.879 8.58097C490.309 8.83665 490.667 9.22254 490.951 9.73864C491.235 10.2547 491.377 10.946 491.377 11.8125V19H489.701V17.5227H489.616C489.502 17.7595 489.313 18.0128 489.048 18.2827C488.782 18.5526 488.43 18.7822 487.989 18.9716C487.549 19.161 487.012 19.2557 486.377 19.2557ZM486.633 17.75C487.296 17.75 487.854 17.6198 488.309 17.3594C488.768 17.099 489.114 16.7628 489.346 16.3509C489.583 15.9389 489.701 15.5057 489.701 15.0511V13.517C489.63 13.6023 489.474 13.6804 489.232 13.7514C488.996 13.8177 488.721 13.8769 488.408 13.929C488.101 13.9763 487.8 14.0189 487.506 14.0568C487.218 14.09 486.983 14.1184 486.803 14.142C486.368 14.1989 485.96 14.2912 485.582 14.419C485.208 14.5421 484.905 14.7292 484.673 14.9801C484.445 15.2263 484.332 15.5625 484.332 15.9886C484.332 16.571 484.547 17.0114 484.978 17.3097C485.414 17.6032 485.965 17.75 486.633 17.75ZM496.113 12.4375V19H494.436V4.45455H496.113V9.79545H496.255C496.51 9.23201 496.894 8.78456 497.405 8.45312C497.921 8.11695 498.608 7.94886 499.465 7.94886C500.208 7.94886 500.859 8.09801 501.418 8.39631C501.977 8.68987 502.41 9.14205 502.718 9.75284C503.03 10.3589 503.186 11.1307 503.186 12.0682V19H501.51V12.1818C501.51 11.3153 501.285 10.6454 500.836 10.1719C500.391 9.69366 499.773 9.45455 498.982 9.45455C498.433 9.45455 497.94 9.57055 497.505 9.80256C497.074 10.0346 496.733 10.3731 496.482 10.8182C496.236 11.2633 496.113 11.803 496.113 12.4375ZM509.463 19.2557C508.772 19.2557 508.144 19.1255 507.581 18.8651C507.018 18.5999 506.57 18.2188 506.239 17.7216C505.907 17.2197 505.741 16.6136 505.741 15.9034C505.741 15.2784 505.865 14.7718 506.111 14.3835C506.357 13.9905 506.686 13.6828 507.098 13.4602C507.51 13.2377 507.964 13.072 508.462 12.9631C508.964 12.8494 509.468 12.7595 509.974 12.6932C510.637 12.608 511.175 12.544 511.587 12.5014C512.003 12.4541 512.306 12.3759 512.496 12.267C512.69 12.1581 512.787 11.9687 512.787 11.6989V11.642C512.787 10.9413 512.595 10.3968 512.212 10.0085C511.833 9.62027 511.258 9.42614 510.486 9.42614C509.686 9.42614 509.058 9.60133 508.604 9.9517C508.149 10.3021 507.83 10.6761 507.645 11.0739L506.054 10.5057C506.338 9.8428 506.717 9.3267 507.19 8.95739C507.669 8.58333 508.189 8.32292 508.753 8.17614C509.321 8.02462 509.88 7.94886 510.429 7.94886C510.779 7.94886 511.182 7.99148 511.636 8.0767C512.096 8.1572 512.538 8.32528 512.964 8.58097C513.395 8.83665 513.753 9.22254 514.037 9.73864C514.321 10.2547 514.463 10.946 514.463 11.8125V19H512.787V17.5227H512.702C512.588 17.7595 512.399 18.0128 512.134 18.2827C511.868 18.5526 511.516 18.7822 511.075 18.9716C510.635 19.161 510.098 19.2557 509.463 19.2557ZM509.719 17.75C510.382 17.75 510.94 17.6198 511.395 17.3594C511.854 17.099 512.2 16.7628 512.432 16.3509C512.669 15.9389 512.787 15.5057 512.787 15.0511V13.517C512.716 13.6023 512.56 13.6804 512.318 13.7514C512.081 13.8177 511.807 13.8769 511.494 13.929C511.187 13.9763 510.886 14.0189 510.592 14.0568C510.304 14.09 510.069 14.1184 509.889 14.142C509.454 14.1989 509.046 14.2912 508.668 14.419C508.294 14.5421 507.991 14.7292 507.759 14.9801C507.531 15.2263 507.418 15.5625 507.418 15.9886C507.418 16.571 507.633 17.0114 508.064 17.3097C508.5 17.6032 509.051 17.75 509.719 17.75ZM517.522 19V8.09091H519.142V9.79545H519.284C519.511 9.21307 519.878 8.76089 520.385 8.43892C520.891 8.11222 521.5 7.94886 522.21 7.94886C522.93 7.94886 523.529 8.11222 524.007 8.43892C524.49 8.76089 524.866 9.21307 525.136 9.79545H525.25C525.529 9.23201 525.948 8.78456 526.507 8.45312C527.065 8.11695 527.735 7.94886 528.517 7.94886C529.492 7.94886 530.29 8.25426 530.91 8.86506C531.53 9.47112 531.841 10.4157 531.841 11.6989V19H530.164V11.6989C530.164 10.8939 529.944 10.3187 529.504 9.97301C529.064 9.62737 528.545 9.45455 527.949 9.45455C527.181 9.45455 526.587 9.68655 526.166 10.1506C525.744 10.6098 525.534 11.1922 525.534 11.8977V19H523.829V11.5284C523.829 10.9081 523.628 10.4086 523.225 10.0298C522.823 9.64631 522.305 9.45455 521.67 9.45455C521.234 9.45455 520.827 9.57055 520.449 9.80256C520.074 10.0346 519.771 10.3565 519.539 10.7685C519.312 11.1757 519.199 11.6468 519.199 12.1818V19H517.522Z" fill="#FFFAFA"/>
</svg>
