<svg width="700" height="700" viewBox="0 0 700 700" fill="none" xmlns="http://www.w3.org/2000/svg">
<circle cx="350" cy="350" r="350" fill="#D9D9D9"/>
<path d="M87.8488 439.96H124.3L168.741 402.68L133.788 394.23L124.3 414.61C119.906 426.141 98.1684 430.019 87.8488 430.516C78.661 436.083 84.0205 439.131 87.8488 439.96Z" fill="#151524"/>
<rect x="468.344" y="375.838" width="78.8952" height="3.97651" fill="#151524"/>
<path d="M63.0038 465.292C60.2075 436.661 112.771 417.574 139.402 411.609C98.6565 432.287 129.416 450.049 149.888 456.345C183.044 469.467 233.278 474.405 254.25 475.233C292.599 481.596 359.776 479.873 388.571 478.216C480.849 475.432 538.872 458.83 556.349 450.877C609.079 427.416 568 406.97 540.869 399.68L573.326 407.136L614.272 422.545C664.605 452.766 617.268 480.867 587.307 491.139C520.996 516.589 413.205 523.945 367.599 524.443C282.912 527.226 205.481 518.975 177.352 514.501C93.0639 501.776 65.9998 476.393 63.0038 465.292Z" fill="#151524"/>
<path d="M421.406 399.697V205.843H471.34V399.697H421.406Z" fill="#151524"/>
<path d="M226.664 180.99L127.796 407.651L164.747 412.621L231.658 237.655L285.586 387.768L335.52 371.862L251.631 180.99H226.664Z" fill="#151524"/>
<path d="M565.215 265.49C610.754 178.803 520.275 167.072 469.342 172.042V191.925C538.051 180.791 537.918 236.329 529.263 265.49H565.215Z" fill="#151524"/>
<path d="M389.448 179.001C421.805 176.616 424.235 195.902 421.406 205.843H441.879V170.551H389.448C382.258 173.732 386.452 177.51 389.448 179.001Z" fill="#151524"/>
<path d="M165.246 411.13C150.066 433.398 167.576 434.657 178.229 432.504C185.419 437.673 181.225 439.628 178.229 439.959H124.8L128.794 406.159L165.246 411.13Z" fill="#151524"/>
<path d="M565.215 427.533C637.918 366.295 586.853 313.209 552.232 294.32L492.312 301.279C537.052 312.413 550.901 350.986 552.232 368.88C552.232 411.031 519.609 421.568 503.297 421.568C476.133 426.34 468.676 407.651 468.344 397.709V441.451C534.655 443.837 560.554 433.167 565.215 427.533Z" fill="#151524"/>
<path d="M329.528 342.038C219.274 397.709 109.154 361.921 67.8753 337.067C119.007 384.786 210.353 390.75 249.634 387.768C295.173 382.996 367.145 351.979 397.438 337.067C466.945 306.051 524.935 296.971 545.241 296.308C595.575 292.332 663.418 315.86 691.048 328.121C623.937 285.97 565.881 276.757 545.241 277.42C495.707 268.672 380.793 316.854 329.528 342.038Z" fill="#151524"/>
<path d="M299.568 441.451H471.34V399.698H421.406C425.401 431.51 410.42 435.818 402.431 433.995H380.96C362.983 433.995 348.836 406.491 344.009 392.739L295.573 407.651L302.564 423.557C308.156 429.124 304.894 432.835 302.564 433.995C294.175 436.381 297.071 439.96 299.568 441.451Z" fill="#151524"/>
<rect x="187.716" y="332.097" width="78.8952" height="3.97651" fill="#151524"/>
<rect x="199.7" y="303.267" width="78.8952" height="3.97651" fill="#151524"/>
<rect x="468.344" y="333.091" width="78.8952" height="3.97651" fill="#151524"/>
<rect x="469.342" y="354.962" width="78.8952" height="3.97651" fill="#151524"/>
<path d="M226.664 180.99C230.992 174.197 242.044 164.686 251.631 180.99H226.664Z" fill="#151524"/>
<path d="M441.879 170.551C443.477 171.347 460.853 171.877 469.342 172.042L470.84 173.534L471.34 207.831H440.88L441.879 170.551Z" fill="#151524"/>
</svg>
